<svg width="512" height="512" viewBox="0 0 512 512" fill="none" xmlns="http://www.w3.org/2000/svg">
<g clip-path="url(#clip0_3_5)">
<mask id="path-1-inside-1_3_5" fill="white">
<rect x="35" y="73" width="441.81" height="365.057" rx="10"/>
</mask>
<rect x="35" y="73" width="441.81" height="365.057" rx="10" fill="#EC80A7" stroke="black" stroke-width="36.1187" mask="url(#path-1-inside-1_3_5)"/>
<mask id="path-2-outside-2_3_5" maskUnits="userSpaceOnUse" x="189.41" y="161.527" width="131" height="188" fill="black">
<rect fill="white" x="189.41" y="161.527" width="131" height="188"/>
<path d="M229.505 289.244V285.023C229.505 275.349 230.267 267.64 231.792 261.894C233.316 256.148 235.573 251.546 238.563 248.087C241.553 244.569 245.217 241.403 249.556 238.589C253.308 236.127 256.65 233.752 259.581 231.466C262.571 229.179 264.917 226.746 266.617 224.167C268.376 221.587 269.255 218.656 269.255 215.372C269.255 212.441 268.552 209.861 267.144 207.634C265.737 205.406 263.832 203.676 261.428 202.445C259.024 201.214 256.357 200.598 253.425 200.598C250.26 200.598 247.328 201.331 244.631 202.797C241.993 204.262 239.853 206.285 238.211 208.865C236.628 211.444 235.837 214.434 235.837 217.835H190.81C190.928 204.937 193.859 194.471 199.605 186.439C205.35 178.349 212.972 172.427 222.47 168.675C231.967 164.864 242.403 162.959 253.777 162.959C266.324 162.959 277.522 164.806 287.371 168.499C297.221 172.134 304.989 177.645 310.676 185.032C316.363 192.361 319.206 201.536 319.206 212.558C319.206 219.652 317.975 225.896 315.513 231.29C313.109 236.625 309.738 241.345 305.399 245.449C301.12 249.494 296.107 253.188 290.361 256.53C286.14 258.992 282.593 261.542 279.72 264.181C276.847 266.76 274.678 269.721 273.213 273.063C271.747 276.346 271.014 280.333 271.014 285.023V289.244H229.505ZM250.963 348.342C244.162 348.342 238.329 345.967 233.463 341.218C228.655 336.411 226.281 330.577 226.339 323.718C226.281 317.034 228.655 311.318 233.463 306.569C238.329 301.82 244.162 299.446 250.963 299.446C257.412 299.446 263.099 301.82 268.024 306.569C273.007 311.318 275.528 317.034 275.587 323.718C275.528 328.291 274.326 332.453 271.981 336.205C269.695 339.899 266.705 342.86 263.011 345.088C259.318 347.257 255.302 348.342 250.963 348.342Z"/>
</mask>
<path d="M229.505 289.244V285.023C229.505 275.349 230.267 267.64 231.792 261.894C233.316 256.148 235.573 251.546 238.563 248.087C241.553 244.569 245.217 241.403 249.556 238.589C253.308 236.127 256.65 233.752 259.581 231.466C262.571 229.179 264.917 226.746 266.617 224.167C268.376 221.587 269.255 218.656 269.255 215.372C269.255 212.441 268.552 209.861 267.144 207.634C265.737 205.406 263.832 203.676 261.428 202.445C259.024 201.214 256.357 200.598 253.425 200.598C250.26 200.598 247.328 201.331 244.631 202.797C241.993 204.262 239.853 206.285 238.211 208.865C236.628 211.444 235.837 214.434 235.837 217.835H190.81C190.928 204.937 193.859 194.471 199.605 186.439C205.35 178.349 212.972 172.427 222.47 168.675C231.967 164.864 242.403 162.959 253.777 162.959C266.324 162.959 277.522 164.806 287.371 168.499C297.221 172.134 304.989 177.645 310.676 185.032C316.363 192.361 319.206 201.536 319.206 212.558C319.206 219.652 317.975 225.896 315.513 231.29C313.109 236.625 309.738 241.345 305.399 245.449C301.12 249.494 296.107 253.188 290.361 256.53C286.14 258.992 282.593 261.542 279.72 264.181C276.847 266.76 274.678 269.721 273.213 273.063C271.747 276.346 271.014 280.333 271.014 285.023V289.244H229.505ZM250.963 348.342C244.162 348.342 238.329 345.967 233.463 341.218C228.655 336.411 226.281 330.577 226.339 323.718C226.281 317.034 228.655 311.318 233.463 306.569C238.329 301.82 244.162 299.446 250.963 299.446C257.412 299.446 263.099 301.82 268.024 306.569C273.007 311.318 275.528 317.034 275.587 323.718C275.528 328.291 274.326 332.453 271.981 336.205C269.695 339.899 266.705 342.86 263.011 345.088C259.318 347.257 255.302 348.342 250.963 348.342Z" fill="white"/>
<path d="M229.505 289.244H228.86V289.889H229.505V289.244ZM231.792 261.894L231.168 261.729L231.168 261.729L231.792 261.894ZM238.563 248.087L239.051 248.509L239.055 248.505L238.563 248.087ZM249.556 238.589L249.907 239.13L249.91 239.129L249.556 238.589ZM259.581 231.466L259.19 230.954L259.185 230.957L259.581 231.466ZM266.617 224.167L266.084 223.803L266.078 223.812L266.617 224.167ZM261.428 202.445L261.134 203.019L261.134 203.019L261.428 202.445ZM244.631 202.797L244.323 202.23L244.318 202.233L244.631 202.797ZM238.211 208.865L237.667 208.518L237.662 208.527L238.211 208.865ZM235.837 217.835V218.48H236.482V217.835H235.837ZM190.81 217.835L190.165 217.829L190.16 218.48H190.81V217.835ZM199.605 186.439L200.129 186.815L200.131 186.813L199.605 186.439ZM222.47 168.675L222.707 169.275L222.71 169.274L222.47 168.675ZM287.371 168.499L287.145 169.103L287.148 169.104L287.371 168.499ZM310.676 185.032L310.165 185.426L310.167 185.428L310.676 185.032ZM315.513 231.29L314.926 231.022L314.925 231.025L315.513 231.29ZM305.399 245.449L305.843 245.918L305.843 245.917L305.399 245.449ZM290.361 256.53L290.037 255.972L290.036 255.972L290.361 256.53ZM279.72 264.181L280.151 264.66L280.157 264.656L279.72 264.181ZM273.213 273.063L273.801 273.326L273.803 273.322L273.213 273.063ZM271.014 289.244V289.889H271.659V289.244H271.014ZM233.463 341.218L233.006 341.674L233.012 341.68L233.463 341.218ZM226.339 323.718L226.984 323.723L226.984 323.712L226.339 323.718ZM233.463 306.569L233.012 306.107L233.009 306.11L233.463 306.569ZM268.024 306.569L267.576 307.033L267.579 307.036L268.024 306.569ZM275.587 323.718L276.232 323.726L276.232 323.712L275.587 323.718ZM271.981 336.205L271.434 335.864L271.433 335.866L271.981 336.205ZM263.011 345.088L263.338 345.644L263.344 345.64L263.011 345.088ZM229.505 289.244H230.15V285.023H229.505H228.86V289.244H229.505ZM229.505 285.023H230.15C230.15 275.375 230.911 267.728 232.415 262.059L231.792 261.894L231.168 261.729C229.623 267.551 228.86 275.324 228.86 285.023H229.505ZM231.792 261.894L232.415 262.059C233.921 256.381 236.141 251.875 239.051 248.509L238.563 248.087L238.075 247.665C235.005 251.217 232.71 255.916 231.168 261.729L231.792 261.894ZM238.563 248.087L239.055 248.505C242 245.04 245.615 241.915 249.907 239.13L249.556 238.589L249.205 238.048C244.82 240.892 241.107 244.099 238.072 247.669L238.563 248.087ZM249.556 238.589L249.91 239.129C253.674 236.658 257.03 234.274 259.978 231.975L259.581 231.466L259.185 230.957C256.27 233.231 252.943 235.595 249.202 238.05L249.556 238.589ZM259.581 231.466L259.973 231.978C263.009 229.657 265.408 227.173 267.155 224.522L266.617 224.167L266.078 223.812C264.425 226.32 262.134 228.702 259.19 230.954L259.581 231.466ZM266.617 224.167L267.15 224.53C268.985 221.838 269.9 218.778 269.9 215.372H269.255H268.61C268.61 218.533 267.766 221.337 266.084 223.803L266.617 224.167ZM269.255 215.372H269.9C269.9 212.333 269.169 209.631 267.69 207.289L267.144 207.634L266.599 207.978C267.934 210.091 268.61 212.549 268.61 215.372H269.255ZM267.144 207.634L267.69 207.289C266.219 204.961 264.226 203.153 261.722 201.871L261.428 202.445L261.134 203.019C263.438 204.199 265.255 205.85 266.599 207.978L267.144 207.634ZM261.428 202.445L261.722 201.871C259.22 200.589 256.45 199.953 253.425 199.953V200.598V201.243C256.264 201.243 258.829 201.838 261.134 203.019L261.428 202.445ZM253.425 200.598V199.953C250.155 199.953 247.118 200.711 244.323 202.23L244.631 202.797L244.939 203.363C247.539 201.951 250.364 201.243 253.425 201.243V200.598ZM244.631 202.797L244.318 202.233C241.585 203.751 239.366 205.849 237.667 208.518L238.211 208.865L238.756 209.211C240.34 206.721 242.401 204.773 244.944 203.36L244.631 202.797ZM238.211 208.865L237.662 208.527C236.009 211.221 235.192 214.33 235.192 217.835H235.837H236.482C236.482 214.538 237.248 211.668 238.761 209.202L238.211 208.865ZM235.837 217.835V217.19H190.81V217.835V218.48H235.837V217.835ZM190.81 217.835L191.455 217.841C191.572 205.035 194.481 194.71 200.129 186.815L199.605 186.439L199.08 186.064C193.237 194.233 190.284 204.838 190.165 217.829L190.81 217.835ZM199.605 186.439L200.131 186.813C205.802 178.827 213.321 172.983 222.707 169.275L222.47 168.675L222.233 168.075C212.622 171.872 204.899 177.87 199.079 186.066L199.605 186.439ZM222.47 168.675L222.71 169.274C232.123 165.497 242.476 163.604 253.777 163.604V162.959V162.314C242.33 162.314 231.812 164.232 222.23 168.076L222.47 168.675ZM253.777 162.959V163.604C266.261 163.604 277.38 165.441 287.145 169.103L287.371 168.499L287.598 167.895C277.663 164.17 266.386 162.314 253.777 162.314V162.959ZM287.371 168.499L287.148 169.104C296.898 172.703 304.561 178.147 310.165 185.426L310.676 185.032L311.187 184.639C305.417 177.144 297.543 171.566 287.595 167.894L287.371 168.499ZM310.676 185.032L310.167 185.428C315.75 192.623 318.561 201.651 318.561 212.558H319.206H319.851C319.851 201.421 316.976 192.099 311.186 184.637L310.676 185.032ZM319.206 212.558H318.561C318.561 219.578 317.343 225.727 314.926 231.022L315.513 231.29L316.1 231.558C318.607 226.065 319.851 219.727 319.851 212.558H319.206ZM315.513 231.29L314.925 231.025C312.556 236.282 309.235 240.933 304.956 244.98L305.399 245.449L305.843 245.917C310.241 241.757 313.662 236.968 316.101 231.555L315.513 231.29ZM305.399 245.449L304.956 244.98C300.717 248.987 295.745 252.652 290.037 255.972L290.361 256.53L290.686 257.087C296.469 253.723 301.522 250.001 305.843 245.918L305.399 245.449ZM290.361 256.53L290.036 255.972C285.785 258.453 282.198 261.029 279.284 263.706L279.72 264.181L280.157 264.656C282.988 262.055 286.495 259.531 290.686 257.087L290.361 256.53ZM279.72 264.181L279.289 263.701C276.352 266.338 274.127 269.373 272.622 272.804L273.213 273.063L273.803 273.322C275.23 270.069 277.343 267.182 280.151 264.66L279.72 264.181ZM273.213 273.063L272.624 272.8C271.112 276.187 270.369 280.268 270.369 285.023H271.014H271.659C271.659 280.397 272.382 276.505 273.801 273.326L273.213 273.063ZM271.014 285.023H270.369V289.244H271.014H271.659V285.023H271.014ZM271.014 289.244V288.599H229.505V289.244V289.889H271.014V289.244ZM250.963 348.342V347.697C244.33 347.697 238.659 345.388 233.913 340.757L233.463 341.218L233.012 341.68C237.999 346.546 243.994 348.987 250.963 348.987V348.342ZM233.463 341.218L233.919 340.762C229.235 336.078 226.927 330.411 226.984 323.723L226.339 323.718L225.694 323.712C225.634 330.743 228.075 336.743 233.006 341.674L233.463 341.218ZM226.339 323.718L226.984 323.712C226.927 317.205 229.231 311.656 233.916 307.028L233.463 306.569L233.009 306.11C228.079 310.98 225.634 316.863 225.694 323.723L226.339 323.718ZM233.463 306.569L233.913 307.03C238.659 302.399 244.33 300.09 250.963 300.09V299.446V298.801C243.994 298.801 237.999 301.241 233.012 306.107L233.463 306.569ZM250.963 299.446V300.09C257.234 300.09 262.764 302.392 267.576 307.033L268.024 306.569L268.472 306.105C263.435 301.248 257.59 298.801 250.963 298.801V299.446ZM268.024 306.569L267.579 307.036C272.44 311.668 274.885 317.22 274.942 323.723L275.587 323.718L276.232 323.712C276.172 316.848 273.574 310.967 268.469 306.102L268.024 306.569ZM275.587 323.718L274.942 323.709C274.885 328.168 273.715 332.215 271.434 335.864L271.981 336.205L272.528 336.547C274.938 332.692 276.172 328.413 276.232 323.726L275.587 323.718ZM271.981 336.205L271.433 335.866C269.2 339.473 266.283 342.361 262.678 344.535L263.011 345.088L263.344 345.64C267.126 343.359 270.19 340.325 272.53 336.545L271.981 336.205ZM263.011 345.088L262.685 344.532C259.091 346.642 255.188 347.697 250.963 347.697V348.342V348.987C255.415 348.987 259.544 347.872 263.338 345.644L263.011 345.088Z" fill="black" mask="url(#path-2-outside-2_3_5)"/>
</g>
<defs>
<clipPath id="clip0_3_5">
<rect width="512" height="512" fill="white"/>
</clipPath>
</defs>
</svg>
